<?xml version="1.0" encoding="UTF-8" standalone="no"?>
<svg version="1.1" xmlns="http://www.w3.org/2000/svg" xmlns:xlink="http://www.w3.org/1999/xlink" preserveAspectRatio="xMidYMid meet" viewBox="22.85668683030735 118.47188111662607 594.9001232719006 363.0562377667479" width="594.9" height="363.06">

<g fill="#1c4532">
<path d="M422.1 165.7C411.8 150.63 386.92 150.63 376.61 165.7C357.43 193.76 203.96 418.22 184.78 446.28C174.17 461.79 186.9 481.53 207.52 481.53C245.88 481.53 552.83 481.53 591.2 481.53C611.81 481.53 624.54 461.79 613.94 446.28C575.57 390.16 441.28 193.76 422.1 165.7Z" ></path>

</g>
<g fill="#22543d" >
<path d="M276.52 131.01C265.69 114.29 239.52 114.29 228.68 131.01C208.5 162.15 47.06 411.27 26.88 442.41C15.72 459.63 29.11 481.53 50.8 481.53C91.16 481.53 414.05 481.53 454.41 481.53C476.09 481.53 489.49 459.63 478.33 442.41C437.97 380.13 296.7 162.15 276.52 131.01Z"></path>

</g></svg>